<svg width="35" height="35" viewBox="0 0 35 35" fill="none" xmlns="http://www.w3.org/2000/svg">
<g style="mix-blend-mode:darken">
<path d="M17.5 0C7.84 0 0 7.84 0 17.5C0 27.16 7.84 35 17.5 35C27.16 35 35 27.16 35 17.5C35 7.84 27.16 0 17.5 0ZM17.5 33.656C8.596 33.656 1.344 26.404 1.344 17.5C1.344 8.596 8.596 1.344 17.5 1.344C26.404 1.344 33.656 8.596 33.656 17.5C33.656 26.404 26.404 33.656 17.5 33.656Z" fill="#282828"/>
<path d="M9.35201 15.484C8.26001 15.484 7.36401 16.408 7.36401 17.5C7.36401 18.592 8.28801 19.516 9.35201 19.516H15.484V25.564C15.484 26.628 16.408 27.552 17.528 27.552C18.62 27.552 19.572 26.656 19.572 25.564V19.516H25.704C26.796 19.516 27.72 18.592 27.72 17.5C27.72 16.408 26.796 15.484 25.704 15.484H19.572V9.436C19.572 8.372 18.648 7.448 17.528 7.448C16.436 7.448 15.484 8.344 15.484 9.436V15.484H9.35201V15.484Z" fill="#282828"/>
</g>
</svg>
