<svg width="35" height="35" viewBox="0 0 35 35" fill="none" xmlns="http://www.w3.org/2000/svg">
<path d="M17.5 0C7.85042 0 0 7.85042 0 17.5C0 27.1496 7.85042 35 17.5 35C27.1496 35 35 27.1496 35 17.5C35 7.85042 27.1496 0 17.5 0ZM17.5 32.5C9.22903 32.5 2.5 25.771 2.5 17.5C2.5 9.22903 9.22903 2.5 17.5 2.5C25.771 2.5 32.5 9.22903 32.5 17.5C32.5 25.771 25.771 32.5 17.5 32.5Z" fill="black"/>
<path d="M22.8628 12.1372C22.3746 11.649 21.5832 11.649 21.095 12.1372L17.5 15.7322L13.9049 12.1371C13.4167 11.6489 12.6253 11.6489 12.1371 12.1371C11.6489 12.6253 11.6489 13.4167 12.1371 13.9049L15.7322 17.5L12.1371 21.0951C11.6489 21.5833 11.6489 22.3747 12.1371 22.8629C12.3811 23.1069 12.7011 23.229 13.021 23.229C13.3408 23.229 13.6607 23.1069 13.9049 22.8629L17.5 19.2678L21.0951 22.8629C21.3392 23.1069 21.6592 23.229 21.979 23.229C22.2989 23.229 22.6187 23.1069 22.8629 22.8629C23.3511 22.3747 23.3511 21.5833 22.8629 21.0951L19.2678 17.5L22.8629 13.9049C23.351 13.4168 23.351 12.6253 22.8628 12.1372Z" fill="black"/>
</svg>
