<svg width="40" height="50" viewBox="0 0 40 50" fill="none" xmlns="http://www.w3.org/2000/svg">
<path d="M38.198 0H1.80447C0.809071 0 0 0.863061 0 1.92489V48.0751C0 49.1422 0.809071 50 1.80447 50H38.1955C39.1909 50 40 49.1422 40 48.0751V1.92489C40.0024 0.860446 39.1909 0 38.198 0ZM36.3935 46.1502H3.60895V3.85239H36.391V46.1502H36.3935Z" fill="#F3F3F4"/>
<path d="M15.2963 12.2084H8.69138V19.2515H15.2939V12.2084H15.2963ZM14.4922 14.5465L11.5599 17.6744C11.4839 17.7581 11.354 17.7581 11.278 17.6744L9.49064 15.76C9.41464 15.6763 9.41464 15.5403 9.49064 15.454L9.91969 15.0042C9.9957 14.9179 10.1232 14.9179 10.2041 15.0042L11.4226 16.3092L13.7836 13.7907C13.8645 13.707 13.9896 13.707 14.0705 13.7907L14.4946 14.2457C14.5731 14.3268 14.5731 14.4628 14.4922 14.5465Z" fill="#F3F3F4"/>
<path d="M31.7793 13.7933H16.6742V17.6666H31.7793V13.7933Z" fill="#F3F3F4"/>
<path d="M15.2963 21.3934H8.69138V28.4339H15.2939V21.3934H15.2963ZM14.4922 23.7289L11.5599 26.8569C11.4839 26.9406 11.354 26.9406 11.278 26.8569L9.49064 24.9424C9.41464 24.8588 9.41464 24.7228 9.49064 24.6391L9.91969 24.1866C9.9957 24.1029 10.1232 24.1029 10.2041 24.1866L11.4226 25.4917L13.7836 22.9731C13.8645 22.8894 13.9896 22.8894 14.0705 22.9731L14.4946 23.4255C14.5731 23.5092 14.5731 23.6452 14.4922 23.7289Z" fill="#F3F3F4"/>
<path d="M31.7793 22.9757H16.6742V26.849H31.7793V22.9757Z" fill="#F3F3F4"/>
<path d="M15.2964 30.7799H8.69385V37.823H15.2964V30.7799Z" fill="#F3F3F4"/>
<path d="M31.7793 32.3674H16.6742V36.2381H31.7793V32.3674Z" fill="#F3F3F4"/>
</svg>
